Coordinates
version=1
nRows=20
nColumns=32
inDegrees=yes

Units are S.I. units (second, meters, Newtons, ...)
If the header above contains a line with 'inDegrees', this indicates whether rotational values are in degrees (yes) or radians (no).

endheader
time	pelvis_tilt	pelvis_list	pelvis_rotation	pelvis_tx	pelvis_ty	pelvis_tz	hip_flexion_r	hip_adduction_r	hip_rotation_r	knee_angle_r	ankle_angle_r	subtalar_angle_r	mtp_angle_r	hip_flexion_l	hip_adduction_l	hip_rotation_l	knee_angle_l	ankle_angle_l	subtalar_angle_l	mtp_angle_l	lumbar_extension	lumbar_bending	lumbar_rotation	arm_flex_r	arm_add_r	arm_rot_r	elbow_flex_r	arm_flex_l	arm_add_l	arm_rot_l	elbow_flex_l
      3.00000000	     -9.60925541	     -9.24565069	    -12.64601540	     -0.62769772	      0.85853751	     -0.17787071	      8.70988274	      6.72593753	    -10.89846316	    -28.43332790	     13.05068573	     -0.53569997	      0.00000000	     48.32616860	    -16.53189990	     -8.80479012	    -26.55219492	     -0.78138118	    -25.46519329	      0.00000000	     -8.63408043	     14.59557611	     14.13118928	      0.00000000	      0.00000000	      0.00000000	      0.00000000	      0.00000000	      0.00000000	      0.00000000	      0.00000000
      3.01000000	     -9.59453768	     -9.54380890	    -12.87876819	     -0.61431548	      0.85616038	     -0.17676600	      7.91349350	      6.91447850	    -10.58794599	    -28.89640325	     13.15990850	     -0.34517520	      0.00000000	     47.31691743	    -17.00134910	     -9.08375330	    -24.19784573	     -1.30847972	    -25.50923585	      0.00000000	     -8.10686180	     14.38064406	     13.75135424	      0.00000000	      0.00000000	      0.00000000	      0.00000000	      0.00000000	      0.00000000	      0.00000000	      0.00000000
      3.02000000	     -9.46788335	     -9.76126624	    -12.99624550	     -0.60069891	      0.85364735	     -0.17596895	      7.01024732	      6.93007430	    -10.04492870	    -29.32168753	     12.81006323	     -0.13000600	      0.00000000	     46.30663805	    -17.40166720	     -9.26633481	    -22.46142443	     -1.77377646	    -25.64417323	      0.00000000	     -7.63581278	     14.03215015	     13.17049680	      0.00000000	      0.00000000	      0.00000000	      0.00000000	      0.00000000	      0.00000000	      0.00000000	      0.00000000
      3.03000000	     -9.18716738	    -10.06001537	    -13.10646995	     -0.58666359	      0.85134604	     -0.17489896	      6.03560414	      6.97850623	     -9.67167608	    -29.87765549	     12.68116707	     -0.01221863	      0.00000000	     45.01299470	    -17.89355924	     -9.79719345	    -20.97736771	     -2.53314715	    -25.60987609	      0.00000000	     -7.25739094	     13.69494296	     12.50043278	      0.00000000	      0.00000000	      0.00000000	      0.00000000	      0.00000000	      0.00000000	      0.00000000	      0.00000000
      3.04000000	     -7.48563995	    -10.42325642	    -12.55722920	     -0.57136388	      0.85079301	     -0.17436653	      3.19380304	      6.62619065	    -10.21118161	    -30.12738934	     12.49789505	      0.78117674	      0.00000000	     42.15049254	    -17.98915334	    -10.86887750	    -19.72166651	     -7.54582865	    -28.20396249	      0.00000000	     -8.37388289	     13.06604791	     12.02063294	      0.00000000	      0.00000000	      0.00000000	      0.00000000	      0.00000000	      0.00000000	      0.00000000	      0.00000000
      3.05000000	     -7.81436963	    -10.78488762	    -12.70442826	     -0.55722422	      0.84752601	     -0.17348063	      2.82982251	      7.02049943	     -9.13723340	    -30.62792651	     11.67234453	      0.47638571	      0.00000000	     42.12493997	    -18.66389629	    -11.65706468	    -20.36904027	    -16.38120672	    -30.00007015	      0.00000000	     -7.24783793	     12.92316151	     11.58613590	      0.00000000	      0.00000000	      0.00000000	      0.00000000	      0.00000000	      0.00000000	      0.00000000	      0.00000000
      3.06000000	     -7.92428415	    -11.30005322	    -11.98408739	     -0.54305211	      0.84497975	     -0.17240260	      1.95674987	      7.75053036	     -8.44683879	    -30.68881975	     11.17450657	      0.55250177	      0.00000000	     42.69641805	    -19.05642910	    -11.31179913	    -22.13254709	    -20.24775898	    -29.07773097	      0.00000000	     -6.24717718	     12.75240124	      9.95096189	      0.00000000	      0.00000000	      0.00000000	      0.00000000	      0.00000000	      0.00000000	      0.00000000	      0.00000000
      3.07000000	     -7.68524293	    -11.12758307	    -11.31836902	     -0.52943756	      0.84358123	     -0.17130173	      1.14055977	      7.65947829	     -7.63476485	    -31.17691021	     11.00254279	      0.53955094	      0.00000000	     43.23002375	    -18.83807734	    -10.82185123	    -24.18036578	    -20.29757317	    -29.36330330	      0.00000000	     -5.67066277	     11.56045642	      9.73273340	      0.00000000	      0.00000000	      0.00000000	      0.00000000	      0.00000000	      0.00000000	      0.00000000	      0.00000000
      3.08000000	     -8.56589643	    -11.21337567	     -8.58620964	     -0.51561146	      0.83922723	     -0.17460374	      1.57294347	      7.60766416	     -9.82721136	    -31.76244946	      9.29790921	      0.15683218	      0.00000000	     46.70175452	    -16.95125368	     -6.93907464	    -28.28813275	    -18.47466041	    -30.00007015	      0.00000000	     -3.44398152	     11.29150909	      5.73814685	      0.00000000	      0.00000000	      0.00000000	      0.00000000	      0.00000000	      0.00000000	      0.00000000	      0.00000000
      3.09000000	     -8.70497296	    -10.79264703	     -6.93988445	     -0.50147954	      0.83729432	     -0.17581806	      1.28337772	      7.21998804	     -9.97787396	    -32.38727589	      8.28228121	      0.08608723	      0.00000000	     48.31690144	    -15.46759875	     -4.99144230	    -31.80810880	    -16.95441974	    -30.00007015	      0.00000000	     -2.21806938	     10.00969996	      3.49284653	      0.00000000	      0.00000000	      0.00000000	      0.00000000	      0.00000000	      0.00000000	      0.00000000	      0.00000000
      3.10000000	     -8.42396390	    -10.40293384	     -5.87392833	     -0.48821766	      0.83663388	     -0.17580131	      0.58783451	      7.06639207	     -8.48754368	    -33.00692844	      8.10146380	      0.24573500	      0.00000000	     48.87635830	    -14.76205346	     -4.40555441	    -34.35927201	    -16.92151024	    -30.00007015	      0.00000000	     -1.89362399	      8.59345233	      3.26686770	      0.00000000	      0.00000000	      0.00000000	      0.00000000	      0.00000000	      0.00000000	      0.00000000	      0.00000000
      3.11000000	     -7.95442821	     -9.91107282	     -3.21317593	     -0.47350254	      0.83575191	     -0.17852940	     -0.48779201	      6.35825186	    -10.13854493	    -33.14351884	      5.00247543	      0.43613511	      0.00000000	     48.86141397	    -12.61872031	     -3.30343277	    -35.84596886	    -15.35535114	    -30.00007015	      0.00000000	     -1.39475083	      6.99993917	     -0.19968633	      0.00000000	      0.00000000	      0.00000000	      0.00000000	      0.00000000	      0.00000000	      0.00000000	      0.00000000
      3.12000000	     -7.76678881	     -9.76182056	     -2.25337129	     -0.46014348	      0.83597476	     -0.17836688	     -1.09042940	      6.54877239	     -8.98813095	    -33.43623298	      4.43189478	      0.60140131	      0.00000000	     48.32694937	    -12.02368058	     -3.27946090	    -36.61471843	    -14.52565635	    -30.00007015	      0.00000000	     -1.02240488	      5.77292230	     -1.33767809	      0.00000000	      0.00000000	      0.00000000	      0.00000000	      0.00000000	      0.00000000	      0.00000000	      0.00000000
      3.13000000	     -7.59063066	     -9.65303854	     -0.96865169	     -0.44709427	      0.83646920	     -0.17877741	     -1.59850218	      6.68173983	     -8.45692444	    -33.82507002	      1.58044247	      1.20084192	      0.00000000	     47.71350954	    -11.19109847	     -2.91903991	    -37.17421958	    -12.10473607	    -30.00007015	      0.00000000	     -0.81013545	      4.64118166	     -2.51203118	      0.00000000	      0.00000000	      0.00000000	      0.00000000	      0.00000000	      0.00000000	      0.00000000	      0.00000000
      3.14000000	     -7.79710167	     -9.51556446	     -0.56036190	     -0.43438621	      0.83724039	     -0.17789050	     -1.52647321	      6.85626255	     -6.83879150	    -34.60915535	     -0.42534453	      0.48518550	      0.00000000	     47.34658694	    -11.15816679	     -3.42288888	    -37.80926373	     -9.81447507	    -30.00007015	      0.00000000	     -0.18904911	      3.50179125	     -2.87534612	      0.00000000	      0.00000000	      0.00000000	      0.00000000	      0.00000000	      0.00000000	      0.00000000	      0.00000000
      3.15000000	     -7.80208802	     -9.58233683	      0.16228668	     -0.42237495	      0.83855339	     -0.17749579	     -1.45189740	      7.12106512	     -6.25820003	    -35.51756113	     -0.58134445	      0.49254472	      0.00000000	     47.05383616	    -11.02868286	     -3.30345388	    -38.65923787	     -9.73796487	    -30.00007015	      0.00000000	      0.06974765	      2.61020840	     -3.01109485	      0.00000000	      0.00000000	      0.00000000	      0.00000000	      0.00000000	      0.00000000	      0.00000000	      0.00000000
      3.16000000	     -8.56001427	     -8.91605366	      0.12917408	     -0.41025159	      0.83966359	     -0.17728938	     -0.27137790	      6.36450511	     -5.38227435	    -37.02026326	     -3.05276874	      0.24051865	      0.00000000	     47.06138077	    -10.62900788	     -3.91760354	    -39.11539307	     -8.17101140	    -30.00007015	      0.00000000	      1.24585015	      1.09348783	     -3.20914045	      0.00000000	      0.00000000	      0.00000000	      0.00000000	      0.00000000	      0.00000000	      0.00000000	      0.00000000
      3.17000000	     -9.03674249	     -8.63242647	      0.04022397	     -0.39886048	      0.84087761	     -0.17754309	      0.79087075	      5.92942936	     -4.61915141	    -38.69386049	     -4.03575766	     -0.19015592	      0.00000000	     46.96441459	    -10.42162130	     -3.71155984	    -39.69985797	     -7.35061153	    -30.00007015	      0.00000000	      1.96215820	      0.24741541	     -2.25132437	      0.00000000	      0.00000000	      0.00000000	      0.00000000	      0.00000000	      0.00000000	      0.00000000	      0.00000000
      3.18000000	     -9.48731452	     -8.45887225	      0.04379882	     -0.38777680	      0.84242168	     -0.17722972	      1.89702481	      5.76251111	     -3.93647400	    -40.29315179	     -5.17621786	     -0.55764766	      0.00000000	     46.86571492	    -10.39988799	     -3.70984725	    -40.04655525	     -7.07033861	    -30.00007015	      0.00000000	      2.61318511	     -0.60089681	     -1.99585812	      0.00000000	      0.00000000	      0.00000000	      0.00000000	      0.00000000	      0.00000000	      0.00000000	      0.00000000
      3.19000000	     -9.36328040	     -8.55331596	      0.11308361	     -0.37636697	      0.84434210	     -0.17791411	      2.31574814	      5.77698138	     -3.43508195	    -41.62763624	     -5.36031971	     -0.72111651	      0.00000000	     46.16476123	    -10.38186204	     -3.17550319	    -40.47063717	     -6.93775305	    -30.00007015	      0.00000000	      2.62085341	     -0.87147411	     -1.82847753	      0.00000000	      0.00000000	      0.00000000	      0.00000000	      0.00000000	      0.00000000	      0.00000000	      0.00000000
